Patient4_TMGait_0pt7_02_right_09_EMG.mot
version=1
nRows=27
nColumns=33
inDegrees=no
endheader
time	1LAddLong	2LGlutMax	3LGlutMed	4LIliopsoas	5LSemiMemb	6LBicFemLong	7LRecFem	8LVastMed	9LVastLat	10LGasMed	11LTibAnt	12lTibPost	13LPeroneusLong	14LSol	15LExtDigLong	16LFlexDigLong	17RAddLong	18RGlutMax	19RGlutMed	20RIliopsoas	21RSemiMemb	22RBicFemLong	23RRecFem	24RVastMed	25RVastLat	26RGasMed	27RTibAnt	28RTibPost	29RPeroneusLong	30RSol	31RExtDigLong	32RFlexDigLong
9.752	-0.00351	-0.10666	0.062561	-0.012512	0.00473	-0.016785	0.24719	0.016937	0.006561	-0.03006	-0.074005	-0.017548	-0.10971	0.032349	0.069733	-0.029144	0.10376	-0.003357	-0.64468	-0.01709	-0.17654	-0.10132	-0.3804	-0.168	-0.095062	-0.021667	0.003967	0.11307	0.052185	-0.61249	-0.004578	-0.01297
9.753	-0.012665	-0.20477	0.076752	0.036163	0.017548	-0.029144	0.14313	0.024567	0.014648	-0.04776	-0.14587	-0.018158	-0.05661	0.028839	0.23056	-0.007477	0.083313	-0.087891	-0.75851	0.013428	-0.36423	-0.033417	-0.28778	-0.16998	-0.083923	-0.058441	0.40543	0.29617	-0.34821	-1.2987	-0.003967	-0.007782
9.754	-0.015564	-0.20233	0.074158	0.037689	0.020905	-0.027466	0.096283	0.016937	0.017395	-0.048523	-0.16724	-0.008392	-0.045929	0.053558	0.31311	0.024414	0.076752	-0.092316	-0.98434	0.059509	-0.50034	0.053711	-0.14526	-0.13107	-0.11734	-0.072632	0.62393	0.17303	-0.42328	-0.44907	-0.002747	-0.0177
9.755	-0.026855	-0.22553	0.093536	0.029907	0.019989	-0.046234	0.075226	0.013428	0.018005	-0.038757	-0.10574	-0.015717	-0.079803	0.064545	0.18509	0.023499	0.052643	-0.13229	-1.0028	0.024414	-0.26672	0.021973	-0.006409	-0.1294	-0.12863	-0.06134	0.3656	-0.053101	-0.90714	0.13321	-0.00351	-0.023346
9.756	-0.025482	-0.21729	0.10101	0.014801	0.029602	-0.044403	0.027313	0.014648	0.026703	-0.039215	-0.037384	-0.018616	-0.10132	0.082703	-0.013733	0.024109	-0.015717	-0.10986	-1.1154	0.040436	0.10757	0.11414	-0.074921	-0.078125	-0.12131	-0.13306	-0.003357	-0.26703	-0.61722	-0.72494	-0.001984	-0.020142
9.757	-0.033112	-0.31265	-0.012665	-0.012665	0.043335	-0.015564	-0.090942	0.015411	0.049438	-0.042572	-0.015564	-0.010223	-0.054932	0.056458	-0.12756	0.013123	-0.075226	-0.24933	-1.2042	0.059967	0.30304	0.23865	-0.045929	-0.00946	-0.11673	-0.056152	0.010834	-0.04425	-0.16357	0.15259	0.000153	-0.024872
9.758	-0.034943	-0.3122	-0.024719	-0.009613	0.015869	-0.009918	-0.20035	0.013428	0.074463	-0.03952	-0.029755	-0.012665	-0.076447	0.016632	-0.11047	0.02243	-0.050659	-0.18784	-0.54382	-0.065155	0.28992	0.018158	0.033264	0.011292	-0.12558	0.05722	0.056763	-0.006104	0.77225	1.4302	-0.000763	-0.025024
9.759	-0.037079	-0.40588	-0.011749	-0.00473	0.010071	-0.032654	-0.35263	0.011292	0.092468	-0.007324	-0.008087	-0.007324	-0.098419	-0.049896	-0.028229	0.007019	0.036163	-0.040741	0.12436	-0.11581	0.15076	-0.03891	0.14893	0.004578	-0.12039	0.095215	-0.08667	0.26566	0.94254	0.73379	0.002747	-0.024872
9.76	-0.028381	-0.42831	-0.013275	0.048981	0.027161	-0.034943	-0.38422	0.016174	0.079193	0.01236	0.026245	-0.00061	-0.13153	-0.064697	0.054474	0.026398	0.075226	0.028534	0.26428	-0.10284	-0.17716	0.002441	0.18356	0.045166	-0.03006	0.067139	-0.085297	0.12985	0.43289	0.53192	-0.003357	-0.027771
9.761	-0.0354	-0.45029	-0.021362	0.10101	0.011597	-0.014343	-0.2475	0.014801	0.079041	0.022888	0.02243	-0.007477	-0.13947	-0.022583	0.062103	0.004883	0.060425	-0.072174	-0.10239	-0.009308	-0.093384	-0.11353	0.21332	0.080719	0.004425	0.041199	-0.006714	-0.024567	0.095673	1.1124	-0.002441	-0.031433
9.762	-0.029755	-0.47684	0.10742	0.046692	0.015259	-0.025024	-0.21774	0.009003	0.063019	0.019226	0.043945	-0.018768	-0.10773	0.05188	0.056458	0.010376	-0.031738	-0.17517	-0.78354	-0.000458	0.13977	-0.4184	0.28702	0.016327	-0.053101	0.010834	-0.32394	-0.034332	0.10452	0.57388	-0.005341	-0.025482
9.763	-0.024719	-0.49194	0.11337	0.001984	0.008087	-0.021362	-0.26428	0.010834	0.039063	0.015106	0.042114	-0.010376	-0.11993	0.082703	0.055695	0.029297	-0.080566	-0.31586	-0.38986	-0.038452	0.062714	-0.46173	0.37582	0.040588	-0.091095	-0.038452	-0.18295	0.15121	0.12085	-0.289	-0.00473	-0.023499
9.764	-0.010681	-0.4483	0.067139	0.043488	0.005493	-0.022125	-0.23102	0.018158	0.04303	0.040436	0.073242	-0.010376	-0.15503	0.079956	0.022583	0.024567	-0.093842	-0.45288	-1.0907	-0.05188	-0.22064	-0.27924	0.4332	-0.042572	-0.11383	-0.013733	0.15106	0.1294	0.20447	-0.57419	-0.005646	-0.01709
9.765	-0.000305	-0.4039	0.032959	-0.001678	0.008392	-0.028687	-0.11078	0.015259	0.049744	0.035706	0.11688	-0.006866	-0.15274	0.085449	0.20126	0.01358	-0.085754	-0.63034	-1.6629	-0.093384	-0.42465	-0.14954	0.4628	-0.042419	-0.1149	0.058899	0.28625	-0.000916	0.29648	-0.26123	-0.003815	-0.012054
9.766	0.006561	-0.33218	-0.011902	-0.026093	0	-0.011292	0.064087	0.02121	0.024719	0.041809	0.13977	-0.001068	-0.15182	0.095062	0.87235	0.014496	-0.016327	-0.79041	-1.7917	0.000153	-0.1181	-0.12207	0.41885	-0.062103	-0.13473	0.058136	0.70953	-0.06546	0.01297	-0.24323	-0.004425	-0.014343
9.767	-0.005646	-0.17975	-0.01358	-0.053253	0.008087	-0.028534	0.19348	0.027924	0.011444	0.024261	0.027771	-0.001373	-0.087585	0.15335	0.35294	0.003204	-0.010986	-0.99884	-1.4664	0.12177	-0.081482	-0.069427	0.44937	0.11063	-0.059052	0.057526	0.77591	-0.072021	-0.022278	-0.081635	-0.003662	-0.009766
9.768	0.007019	-0.048218	-0.01236	-0.052185	0.002441	-0.019073	0.27939	0.023346	0.006104	0.015411	-0.077209	0.006104	-0.040894	0.20325	-0.62943	0.009918	-0.004883	-1.18	-1.5836	0.12238	0.020447	0.39124	0.44159	0.072632	-0.029755	0.04837	-0.008392	-0.071106	0.027618	0.11704	-0.005798	-0.024567
9.769	0.020294	0.11902	-0.017548	-0.046082	0.007019	-0.014954	0.24902	0.022278	-0.016785	0.051422	0.027618	0.006104	-0.103	0.19669	-0.45487	0.014648	-0.007477	-1.1545	-1.5141	0.15106	-0.028381	0.6279	0.45197	-0.012054	-0.085297	-0.017395	-0.23407	-0.076599	-0.019073	0.14358	-0.001068	-0.027924
9.77	0.011139	0.25818	-0.036926	-0.040131	0.005951	-0.018463	0.25101	0.019379	-0.028381	0.047302	0.021973	0.011292	-0.084534	0.27557	0.65567	-0.007019	-0.011749	-1.2541	-1.5355	0.19379	0.19867	0.46356	0.34988	-0.13763	-0.089264	-0.19669	0.1947	-0.025482	-0.19836	-0.17914	-0.003357	-0.0354
9.771	0.00885	0.31418	-0.011902	-0.019379	0.014801	-0.018768	0.31296	0.018768	-0.015717	0.043182	-0.048065	0.010834	-0.018158	0.28458	-0.099945	-0.016022	-0.014496	-1.2596	-1.4305	0.13382	0.17975	0.068359	0.55771	0.043945	0.009766	-0.24658	-0.17532	-0.17838	-0.11307	-0.32272	-0.007324	-0.034637
9.772	0.001221	0.39566	-0.04364	-0.007019	0.019684	-0.035553	0.34744	0.022125	-0.019989	0.051117	0.055847	0.011444	-0.06546	0.2063	0.19836	-0.029449	-0.014496	-1.1259	-1.2604	0.014038	-0.048218	-0.039215	0.55725	0.071411	0.15701	-0.15854	-0.29266	-0.16815	-0.038452	-0.45868	-0.003967	-0.022125
9.773	0.000458	0.46249	-0.054932	-0.01297	0.013275	-0.062561	0.35553	0.018768	-0.010529	0.049133	0.17548	0.01236	-0.087585	0.14511	-0.041809	-0.007019	-0.031433	-1.1232	-1.2541	0.014343	-0.24597	-0.037537	0.62302	0.034637	0.073853	-0.080261	-0.57816	0.025482	-0.03479	-0.40253	-0.010071	-0.012054
9.774	-0.005035	0.53818	-0.066223	-0.023041	0.036163	-0.048828	0.35416	0.019073	0.002747	0.065002	0.024261	0.014954	-0.090332	0.12756	-0.38086	-0.022888	-0.087585	-1.1368	-1.2784	-0.031281	-0.2449	0.22842	0.51773	0.10101	-0.037537	-0.004425	-0.33386	-0.12344	0.050507	-0.69458	-0.005035	-0.00946
9.775	-0.009308	0.5661	-0.081329	-0.017242	0.024567	-0.066681	0.30853	0.020752	0.006104	0.066986	-0.052185	0.016785	-0.10361	0.036011	-0.60455	-0.02594	-0.10452	-1.127	-1.3387	-0.055847	0.10544	0.058594	0.39764	0.20721	-0.065002	-0.003052	-0.12192	-0.41107	0.016327	-0.97778	-0.007324	-0.020142
9.776	-0.00885	0.5693	-0.082703	-0.005188	0.011902	-0.052948	0.23224	0.019836	0.015869	0.037384	-0.03952	0.013885	-0.035553	0.002289	-0.55664	-0.026398	-0.11322	-1.0471	-1.6826	-0.013733	0.57098	-0.096588	0.33691	0.28824	-0.082855	-0.090485	-0.1265	0.3743	0.11704	-0.48447	-0.007782	-0.015564
9.777	-0.050812	0.59753	-0.073242	-0.0177	0.019379	-0.052338	0.23697	0.015411	0	0.061951	-0.032959	0.01709	-0.023193	0.037994	-0.47531	-0.030518	-0.093994	-1.1241	-1.9145	-0.069885	0.6218	0.26382	0.21133	0.2211	-0.13412	0.016174	-0.09613	0.28641	0.21286	0.22583	-0.001373	-0.009308
9.778	-0.049896	0.57526	-0.09613	-0.009613	0.017242	-0.062714	0.31204	0.01297	0.02533	0.073853	-0.052032	0.023499	-0.040131	0.02243	0.18082	-0.024567	-0.048523	-1.2572	-1.9824	-0.098572	0.46417	0.31067	0.065765	0.13412	-0.01709	0.035858	-0.091705	-0.19928	0.23758	0.23941	-0.005493	-0.012665
